# xmcd CD database file
#
# Track frame offsets:
#	150
#	13821
#	27134
#	40960
#	53752
#	66171
#	76919
#	90775
#	102847
#	114163
#	128449
#	140295
#	155333
#	168066
#	182002
#	197192
#	210961
#	223761
#
# Disc length: 3179 seconds
#
# Revision: 0
# Processed by: cddbd v1.5.2PL0 Copyright (c) Steve Scherf et al.
# Submitted via: CDex 1.51
#
DISCID=db0c6912
DTITLE=Various Artist - Blues Legends
DYEAR=2005
DGENRE=Blues
TTITLE0=B.B. King: Three O'Clock in the morning blues
TTITLE1=John Lee Hooker: She was  in Chicago
TTITLE2=T-Bone Walker: Call it stormy Monday
TTITLE3=Dinah Washingon: Baby get lost
TTITLE4=Clarence Gatemouth' Brown: Guitar in my hand
TTITLE5=Joe Turner: Jumpin' tonight
TTITLE6=Muddy Waters: Mad love
TTITLE7=Big Bill Broonzy and Washboard Sam: Diggin' my potatoes
TTITLE8=B.B. King: Bye bye baby
TTITLE9=Lowell Fulson: Reconsider baby
TTITLE10=Willie Mabon: I'm mad
TTITLE11=Dinah Washingon: Blow top blues
TTITLE12=Howlin' Wolf: I'm the wolf
TTITLE13=Little Walter: Blues with a feeling
TTITLE14=Muddy Waters: Hoochie coochie man
TTITLE15=Elmore James: Dust my broom
TTITLE16=John Lee Hooker: She left me by myself
TTITLE17=T-Bone Walker: I got a break, baby
EXTD=YEAR: 2005
EXTT0=
EXTT1=
EXTT2=
EXTT3=
EXTT4=
EXTT5=
EXTT6=
EXTT7=
EXTT8=
EXTT9=
EXTT10=
EXTT11=
EXTT12=
EXTT13=
EXTT14=
EXTT15=
EXTT16=
EXTT17=
PLAYORDER=
